<svg id="Capa_1" enable-background="new 0 0 511.998 511.998" height="512" viewBox="0 0 511.998 511.998" width="512" xmlns="http://www.w3.org/2000/svg"><g><path d="m358.144 324.381-31.716-63.433c4.232-1.371 8.436-2.859 12.607-4.465 4.682-1.803 6.792-7.246 4.548-11.733l-33.266-66.531c5.049-1.515 10.054-3.226 15.005-5.132 3.958-1.524 5.742-6.126 3.845-9.92l-77.378-154.759c-.606-1.213-2.336-1.213-2.943 0l-77.38 154.759c-1.897 3.793-.113 8.396 3.845 9.92 4.951 1.906 9.956 3.616 15.005 5.132l-33.266 66.531c-2.243 4.487-.133 9.931 4.548 11.733 4.171 1.606 8.376 3.094 12.607 4.465l-31.717 63.433c-2.594 5.188-.154 11.481 5.258 13.565 66.017 25.417 139.119 25.417 205.136 0 5.416-2.084 7.856-8.377 5.262-13.565z" fill="#80cb8e"/><path d="m358.144 324.381-31.716-63.433c4.232-1.371 8.436-2.859 12.607-4.465 4.682-1.802 6.792-7.246 4.548-11.733l-33.266-66.531c5.049-1.515 10.054-3.225 15.005-5.132 3.958-1.524 5.742-6.126 3.845-9.92l-77.378-154.759c-.606-1.213-2.336-1.213-2.943 0l-13.529 27.057 53.851 107.702c1.897 3.793.113 8.396-3.845 9.92-.797.307-1.595.608-2.394.905-6.636 2.462-9.65 10.15-6.485 16.48l28.348 56.695c2.14 4.28-.972 9.315-5.757 9.315l-.125.048c-6.594 2.535-9.612 10.157-6.452 16.476l25.687 51.374c2.59 5.18.162 11.478-5.242 13.559-54.963 21.166-114.84 24.712-171.449 10.639-.077 3.991 2.298 7.828 6.297 9.367 66.017 25.417 139.119 25.417 205.136 0 5.411-2.083 7.851-8.376 5.257-13.564z" fill="#66b49d"/><path d="m410.795 475.157h-320.955c-9.162 0-17.401 5.579-20.801 14.087l-6.098 15.255h374.752l-6.098-15.255c-3.4-8.508-11.638-14.087-20.8-14.087z" fill="#80cb8e"/><g fill="#e4936b"><path d="m279.921 449.112-2.671-93.375c-17.914 1.697-35.95 1.697-53.864 0l-2.671 93.375c-.415 14.503-12.292 26.045-26.801 26.045h112.809c-14.51 0-26.387-11.542-26.802-26.045z"/><path d="m385.976 453.043-2.268-79.281c-15.21 1.441-30.524 1.441-45.734 0l-2.268 79.281c-.352 12.314-10.436 22.114-22.756 22.114h95.781c-12.319 0-22.403-9.8-22.755-22.114z"/><path d="m119.316 455.246 2.042-71.381c13.694 1.297 27.482 1.297 41.177 0l2.042 71.381c.317 11.087 9.397 19.91 20.488 19.91h-86.237c11.092.001 20.171-8.822 20.488-19.91z"/></g><path d="m223.02 368.519.307-10.722-1.086-2.171c-25.315-2.501-50.376-8.394-74.491-17.679-5.413-2.084-7.852-8.377-5.258-13.565l31.717-63.433c-4.232-1.371-8.436-2.859-12.608-4.465-4.682-1.802-6.792-7.246-4.548-11.733l24.611-49.221-38.591-77.181c-.463-.927-1.786-.927-2.25 0l-59.154 118.305c-1.45 2.9-.086 6.418 2.94 7.583 3.785 1.457 7.611 2.765 11.471 3.923l-25.43 50.86c-1.715 3.43-.102 7.592 3.477 8.97 3.189 1.228 6.403 2.365 9.638 3.413l-24.246 48.492c-1.983 3.966-.118 8.777 4.02 10.37 50.467 19.431 106.351 19.431 156.818 0 1.039-.4 1.935-1.004 2.663-1.746z" fill="#80cb8e"/><path d="m134.14 160.483c4.736 9.471 4.736 20.62 0 30.091l-18.297 36.594c-2.14 4.28.972 9.316 5.757 9.316 2.59.997 5.193 1.949 7.808 2.855 2.532.878 3.717 3.776 2.518 6.173l-29.435 58.869c-2.593 5.187-.151 11.482 5.26 13.566 11.057 4.257 22.313 7.801 33.701 10.631.027-1.411.361-2.842 1.038-4.197l31.717-63.433c-4.232-1.371-8.436-2.859-12.608-4.465-4.682-1.802-6.792-7.246-4.548-11.733l24.611-49.221-38.591-77.181c-.463-.927-1.786-.927-2.25 0l-13.875 27.75z" fill="#66b49d"/><path d="m222.241 355.625c-13.302-1.314-26.533-3.566-39.594-6.753-.654.581-1.422 1.058-2.291 1.393-38.822 14.947-80.849 18.395-121.15 10.346-1.44 3.811.441 8.156 4.333 9.654 50.467 19.431 106.351 19.431 156.818 0 1.04-.4 1.936-1.004 2.664-1.747l.307-10.722z" fill="#66b49d"/><path d="m452.392 347.139-26.929-53.858c3.593-1.164 7.163-2.427 10.704-3.791 3.975-1.531 5.767-6.153 3.862-9.962l-28.244-56.489c4.287-1.286 8.537-2.739 12.74-4.357 3.361-1.294 4.875-5.202 3.265-8.422l-65.7-131.4c-.515-1.029-1.984-1.029-2.498 0l-36.288 72.577 5.865 11.731c1.897 3.793.113 8.396-3.845 9.92-4.951 1.906-9.957 3.616-15.005 5.132l33.266 66.531c2.243 4.487.133 9.931-4.548 11.733-4.171 1.606-8.375 3.094-12.607 4.465l31.716 63.433c2.594 5.188.154 11.481-5.259 13.565-26.646 10.259-54.447 16.377-82.47 18.354.868 1.016 1.995 1.839 3.339 2.356 56.052 21.581 118.12 21.581 174.172 0 4.594-1.769 6.666-7.113 4.464-11.518z" fill="#80cb8e"/><path d="m452.392 347.139-26.929-53.858c3.593-1.164 7.163-2.427 10.704-3.791 4.063 0 6.705-4.276 4.888-7.909l-29.271-58.542c4.287-1.286 8.537-2.739 12.74-4.357 2.741-2.741 3.566-7.821 1.832-11.288l-64.266-128.534c-.515-1.029-1.984-1.029-2.498 0l-13.751 27.502 40.516 81.032c1.734 3.467.909 8.547-1.832 11.288-.683.263-1.368.522-2.054.776-5.623 2.085-8.177 8.6-5.495 13.964l24.079 48.158c1.817 3.634-.826 7.909-4.888 7.909-.035.014-.071.027-.106.041-5.596 2.151-8.17 8.606-5.489 13.969l21.82 43.64c2.202 4.405.131 9.748-4.465 11.518-36.177 13.928-74.859 18.866-112.813 14.816-8.197 1.302-16.438 2.245-24.698 2.828.868 1.016 1.995 1.839 3.339 2.356 56.052 21.581 118.12 21.581 174.172 0 4.595-1.769 6.667-7.113 4.465-11.518z" fill="#66b49d"/><path d="m242.817 272.972c0 4.143 3.358 7.5 7.5 7.5 17.788 0 35.628-1.88 53.025-5.587 4.051-.863 6.635-4.847 5.771-8.898s-4.84-6.635-8.898-5.771c-16.371 3.488-33.159 5.257-49.898 5.257-4.143-.001-7.5 3.356-7.5 7.499z"/><path d="m250.318 179.516c-11.267 0-22.611-.957-33.717-2.844-4.081-.691-7.957 2.053-8.65 6.137s2.054 7.957 6.138 8.65c11.934 2.028 24.123 3.057 36.229 3.057 4.142 0 7.501-3.357 7.501-7.5s-3.359-7.5-7.501-7.5z"/><path d="m399.277 292.302c-8.023 1.555-16.233 2.632-24.403 3.201-4.132.287-7.248 3.871-6.96 8.003.288 4.137 3.884 7.254 8.003 6.96 8.775-.611 17.595-1.768 26.214-3.438 4.066-.788 6.725-4.724 5.937-8.79s-4.723-6.717-8.791-5.936z"/><path d="m107.279 325.009c1.943.349 9.112 1.542 10.573 1.542 3.716 0 6.942-2.761 7.429-6.544.529-4.108-2.373-7.867-6.481-8.396-2.948-.38-5.934-.839-8.873-1.366-4.072-.735-7.975 1.98-8.707 6.058-.731 4.077 1.982 7.975 6.059 8.706z"/><path d="m459.1 343.785-23.107-46.215c.963-.354 1.921-.716 2.871-1.081 8.097-3.119 11.755-12.555 7.874-20.316l-24.354-48.708c1.625-.573 3.239-1.169 4.838-1.784 7.486-2.883 10.863-11.603 7.277-18.776l-65.7-131.399c-3.276-6.553-12.638-6.552-15.914 0l-29.581 59.16-64.807-129.613c-3.378-6.754-12.999-6.72-16.359 0l-29.956 59.912c-1.853 3.705-.351 8.21 3.354 10.063 3.705 1.855 8.21.351 10.062-3.354l24.719-49.438c16.331 32.661 54.359 108.718 71.988 143.977-4.629 1.772-9.386 3.395-14.145 4.823-4.45 1.336-6.636 6.37-4.552 10.538l33.266 66.53c.263.525.025 1.165-.536 1.38-3.994 1.539-8.107 2.995-12.225 4.33-4.361 1.416-6.448 6.383-4.395 10.489l31.716 63.433c.613 1.227.039 2.717-1.244 3.212-30.646 11.798-64.16 18.505-99.16 18.595-3.316-.314-47.177 1.968-100.587-18.595-1.28-.493-1.86-1.982-1.245-3.212l31.716-63.433c2.05-4.1-.029-9.074-4.395-10.489-4.116-1.334-8.229-2.791-12.225-4.33-.554-.213-.801-.848-.536-1.38 35.434-70.868-26.139 52.277 33.266-66.53 2.082-4.164-.097-9.2-4.552-10.538-4.76-1.429-9.517-3.051-14.145-4.823l31.347-62.693c1.853-3.705.351-8.21-3.354-10.063-3.705-1.854-8.209-.352-10.062 3.354l-27.786 55.571-18.694-37.389c-3.222-6.443-12.436-6.459-15.666 0l-59.151 118.306c-3.428 6.854-.197 15.185 6.953 17.938 1.184.456 2.377.899 3.577 1.33l-21.55 43.1c-3.691 7.382-.215 16.355 7.491 19.323.601.231 1.204.46 1.811.687l-20.432 40.865c-3.969 7.937-.211 17.55 8.034 20.723 3.543 1.364 7.163 2.653 10.756 3.832 3.943 1.295 8.176-.861 9.464-4.788 1.291-3.937-.853-8.173-4.789-9.464-3.354-1.101-6.733-2.305-10.048-3.594l24.246-48.492c2.05-4.1-.029-9.074-4.395-10.489-2.764-.896-5.525-1.864-8.225-2.884l24.935-49.87c2.083-4.166-.099-9.201-4.552-10.538-2.968-.891-5.941-1.883-8.863-2.959l52.575-105.15 31.331 62.661-22.934 45.866c-4.22 8.439-.244 18.697 8.561 22.087 1.572.605 3.162 1.199 4.762 1.778l-27.883 55.767c-4.57 9.139-.264 20.249 9.271 23.919 22.936 8.831 46.658 14.677 70.634 17.54l-.044 1.545c-33.732 12.589-70.301 16.337-105.897 10.833-4.094-.629-7.925 2.173-8.558 6.267-.633 4.093 2.173 7.925 6.266 8.558 2.067.32 4.136.609 6.208.871l-1.844 64.473c-.203 7.079-5.909 12.625-12.991 12.625h-8.991c-12.301 0-23.2 7.381-27.766 18.803l-6.098 15.255c-1.966 4.919 1.661 10.284 6.964 10.284h374.752c5.297 0 8.933-5.36 6.964-10.284l-6.098-15.254c-4.564-11.423-15.464-18.804-27.765-18.804h-2.063c-8.318 0-15.021-6.514-15.259-14.827l-.394-13.767c-.118-4.141-3.573-7.383-7.711-7.283-4.141.118-7.401 3.571-7.283 7.711l.394 13.768c.151 5.265 1.609 10.166 4.062 14.398h-43.398c2.452-4.232 3.911-9.133 4.062-14.398l2.041-71.373c10.081.632 20.49.671 31.193 0l.636 22.236c.116 4.073 3.496 7.395 7.712 7.282 4.14-.118 7.4-3.571 7.282-7.712l-.664-23.201c20.1-2.485 39.984-7.429 59.218-14.834 8.707-3.355 12.665-13.502 8.479-21.874zm-189.12 20.098 2.444 85.443c.195 6.821 2.327 13.103 5.863 18.33h-20.469v-43.197c0-4.143-3.358-7.5-7.5-7.5s-7.5 3.357-7.5 7.5v43.197h-20.469c3.536-5.228 5.668-11.509 5.863-18.33.268-9.351 2.091-73.09 2.445-85.443 4.051.273 8.106.462 12.162.567v30.01c0 4.143 3.358 7.5 7.5 7.5s7.5-3.357 7.5-7.5v-30.01c6.28-.162 10.302-.461 12.161-.567zm-56.763 85.014c-.301 10.52-8.78 18.76-19.304 18.76h-8.847c-7.082 0-12.789-5.546-12.991-12.625l-1.845-64.484c15.264-1.927 30.337-5.411 44.954-10.422zm-86.403 6.564 1.817-63.521c8.876.522 17.744.519 26.633-.007l1.817 63.528c.126 4.411 1.245 8.546 3.14 12.195h-36.547c1.895-3.649 3.013-7.783 3.14-12.195zm297.818 36.567 1.986 4.971h-352.602l1.987-4.971c2.275-5.692 7.707-9.371 13.837-9.371h320.955c6.13-.001 11.562 3.677 13.837 9.371zm-96.423-39.2c-.238 8.314-6.94 14.828-15.259 14.828h-6.229c-10.523 0-19.003-8.24-19.304-18.76l-2.239-78.282c14.784 4.703 29.879 7.995 45.099 9.876zm117.024-101.17c-44.618 17.178-94.508 20.798-143.06 8.248 18.101-3.264 35.982-8.251 53.409-14.96 9.537-3.672 13.839-14.78 9.271-23.919l-27.883-55.767c1.6-.579 3.189-1.173 4.762-1.778 8.775-3.379 12.796-13.616 8.561-22.087l-29.361-58.722c2.385-.823 4.752-1.688 7.089-2.587 8.083-3.114 11.731-12.528 7.858-20.273l-4.188-8.377 29.152-58.304 59.547 119.098c-3.536 1.324-7.149 2.542-10.762 3.626-4.469 1.342-6.627 6.387-4.552 10.538l28.105 56.209c-3.285 1.259-6.659 2.451-10.032 3.545-4.36 1.414-6.447 6.383-4.395 10.488l26.929 53.858c.223.445.02.983-.45 1.164z"/></g></svg>