<svg id="Layer_1" enable-background="new 0 0 510 510" height="512" viewBox="0 0 510 510" width="512" xmlns="http://www.w3.org/2000/svg"><g id="XMLID_637_"><path id="XMLID_640_" d="m210 0v60l22.5 15 22.5-15 15-30-15-30z" fill="#525263"/><path id="XMLID_643_" d="m300 0h-45v60l22.5 15 22.5-15z" fill="#454554"/><path id="XMLID_644_" d="m210 60c-9.293 11.107-67.466 80.64-76.82 91.82-8.44 8.44-13.18 19.881-13.18 31.82v21.209c14.182.016 118.787.133 135 .15l15-72.5-15-72.499c-14.981 0-30.019 0-45 0z" fill="#f2f2fc"/><path id="XMLID_647_" d="m376.82 151.82c-9.293-11.107-67.466-80.639-76.82-91.82-14.981 0-30.019 0-45 0v145l135-.15c0-7.418 0-13.791 0-21.209 0-11.938-4.738-23.379-13.18-31.821z" fill="#e2d9fb"/><path id="XMLID_650_" d="m254.99 205c-35 0-35-20-70-20-33.254 0-34.888 18.049-64.99 19.85v37.721c0 19.156 5.359 37.711 15.21 53.699h59.895l59.895-11.27 30-30-30-50c-.004 0-.006 0-.01 0z" fill="#7dd5f4"/><path id="XMLID_653_" d="m390 242.57c0-13.192 0-24.527 0-37.721-30.129-1.801-31.746-19.85-65.01-19.85-34.999 0-34.999 19.996-69.99 20v80l59.894 11.27h59.896c9.851-15.988 15.21-34.542 15.21-53.699z" fill="#69f"/><path id="XMLID_656_" d="m135.21 363.73c-9.851 15.989-15.21 34.543-15.21 53.7v47.57c0 24.85 20.149 45 45 45h90l15-75-15-60-59.895-11.27z" fill="#7dd5f4"/><path id="XMLID_659_" d="m390 465c0-15.123 0-32.447 0-47.57 0-19.156-5.359-37.711-15.21-53.699h-59.896l-59.894 11.269v135h90c24.849 0 45-20.149 45-45z" fill="#69f"/><path id="XMLID_662_" d="m165 285c-24.852 0-45 20.147-45 45 0 24.853 20.146 45 45 45h90l15-45-15-45c-10.889 0-79.039 0-90 0z" fill="#69f"/><path id="XMLID_665_" d="m390 330c0-24.852-20.147-45-45-45-10.935 0-79.03 0-90 0v90h90c24.852 0 45-20.147 45-45z" fill="#666cff"/></g></svg>